<?xml version="1.0" encoding="UTF-8" standalone="no"?>
<!-- Created with Inkscape (http://www.inkscape.org/) -->

<svg
   version="1.1"
   id="svg2"
   width="280.65332"
   height="102.58667"
   viewBox="0 0 280.65332 102.58667"
   sodipodi:docname="IfW_Logo_master_en_web.eps"
   xmlns:inkscape="http://www.inkscape.org/namespaces/inkscape"
   xmlns:sodipodi="http://sodipodi.sourceforge.net/DTD/sodipodi-0.dtd"
   xmlns="http://www.w3.org/2000/svg"
   xmlns:svg="http://www.w3.org/2000/svg">
  <defs
     id="defs6" />
  <sodipodi:namedview
     id="namedview4"
     pagecolor="#ffffff"
     bordercolor="#000000"
     borderopacity="0.25"
     inkscape:showpageshadow="2"
     inkscape:pageopacity="0.0"
     inkscape:pagecheckerboard="0"
     inkscape:deskcolor="#d1d1d1" />
  <g
     id="g8"
     inkscape:groupmode="layer"
     inkscape:label="ink_ext_XXXXXX"
     transform="matrix(1.3333333,0,0,-1.3333333,0,102.58667)">
    <g
       id="g10"
       transform="scale(0.1)">
      <path
         d="M 679.855,255.324 C 708.617,415.191 602.949,567.992 443.824,596.621 406.211,387.492 383.59,261.762 339.672,17.6758 498.813,-10.9531 651.098,95.4609 679.855,255.324 M 443.648,595.625 339.379,15.9922"
         style="fill:#a1c6eb;fill-opacity:1;fill-rule:nonzero;stroke:none"
         id="path12" />
      <path
         d="m 389.918,291.07 2.633,14.789 -180.406,34.36 c 0,0 -29.118,4.422 -56.559,8.219 -25.152,3.48 -40.977,4.691 -41.734,2.031 -0.754,-2.676 12.07,-5.067 37.398,-12.071 24.883,-6.878 58.297,-13.617 58.297,-13.617 L 389.918,291.07"
         style="fill:#a1c6eb;fill-opacity:1;fill-rule:nonzero;stroke:none"
         id="path14" />
      <path
         d="m 372.652,118.809 2.559,14.601 -145.734,26.621 c 0,0 -4.082,0.707 -36.161,5.196 -24.972,3.488 -47.773,6.82 -46.285,3.683 2.246,-4.726 15.133,-6.312 41.309,-12.851 27.14,-6.778 72.082,-16.473 72.082,-16.473 l 112.23,-20.777"
         style="fill:#a1c6eb;fill-opacity:1;fill-rule:nonzero;stroke:none"
         id="path16" />
      <path
         d="m 416.777,447.309 3.258,16.304 -122.48,22.024 c 0,0 -44.696,7.039 -69.735,10.218 -25.015,3.18 -36.82,5.547 -41.164,2.583 -3.941,-2.692 12.199,-5.766 37.567,-11.93 24.898,-6.055 64.539,-15.098 64.539,-15.098 l 128.015,-24.101"
         style="fill:#a1c6eb;fill-opacity:1;fill-rule:nonzero;stroke:none"
         id="path18" />
      <path
         d="m 392.629,583.891 c -3.16,2.632 -40.988,-10.332 -53.25,-16.981 C 250.215,518.559 197.09,437.621 182.402,344.625 159.246,198.012 233.52,105.484 265.188,69.4961 c 13.25,-15.0469 20.433,-22.1016 22.214,-20.625 4.203,3.4883 -13.664,24.1875 -21.461,37.1875 -37.812,63.0744 -72.625,148.8244 -57.914,251.8824 14.375,100.692 66.243,173.758 160.418,232.911 3.797,2.382 25.754,11.73 24.184,13.039"
         style="fill:#a1c6eb;fill-opacity:1;fill-rule:nonzero;stroke:none"
         id="path20" />
      <path
         d="m 396.301,30.2148 c 5.043,-6.1953 105.09,23.4493 170.09,131.6132 60.386,100.481 54.871,176.102 47.347,176.102 -5.812,0 -6.621,-74.282 -62.586,-162.496 C 476.109,57.1523 391.27,36.4219 396.301,30.2148"
         style="fill:#cfe1f5;fill-opacity:1;fill-rule:nonzero;stroke:none"
         id="path22" />
      <path
         d="m 391.301,305.859 -2.633,-14.789 156.375,-30.324 c 0,0 46.375,-8.367 72.32,-11.922 25.575,-3.488 41.211,-6.914 41.664,-3.16 0.442,3.762 -11.254,6.164 -37.132,13.145 -25.743,6.964 -73.926,16 -73.926,16 l -156.668,31.05"
         style="fill:#cfe1f5;fill-opacity:1;fill-rule:nonzero;stroke:none"
         id="path24" />
      <path
         d="m 360.398,135.918 -2.468,-14.645 93.902,-17.16 c 48.016,-7.7028 43.473,-6.57 73.367,-10.4607 24.52,-3.1875 36.031,-4.2343 39.547,-1.5664 3.594,2.7227 -9.308,4.9883 -34.172,11.1561 -26.183,6.5 -76.281,16.328 -76.281,16.328 l -93.895,16.348"
         style="fill:#cfe1f5;fill-opacity:1;fill-rule:nonzero;stroke:none"
         id="path26" />
      <path
         d="M 133.652,450.648 C 86.6992,434.984 25.4531,405.68 59.8086,345.195 115.805,246.602 292.77,192.563 394.133,172.184 509.719,148.941 618.73,139.73 700.41,132.203 c 9.004,-0.832 24,-1.422 25.117,-3.437 1.563,-2.813 -14.121,-4.176 -22.976,-5.571 -97.848,-15.457 -269.524,-2.761 -342.399,11.258 -43.898,8.442 -240.25,49.231 -330.2692,165.055 -89.3789,115 44.3203,153.203 106.3052,155.601 4.171,0.161 2.351,-2.828 -2.536,-4.461"
         style="fill:#244d99;fill-opacity:1;fill-rule:nonzero;stroke:none"
         id="path28" />
      <path
         d="M 533.59,652.621 500.879,474.547 h 54.148 l 31.981,178.074 H 533.59"
         style="fill:#040606;fill-opacity:1;fill-rule:nonzero;stroke:none"
         id="path30" />
      <path
         d="m 769.121,764.652 c -8.5,3.86 -12.797,4.2 -22.461,4.782 -22.168,-0.407 -40.051,-11.094 -54.258,-27.332 -15.507,-18.321 -23.695,-40.301 -29.527,-67.805 -0.371,-1.762 -3.953,-19.918 -4.297,-21.649 l -33.992,-0.007 -2.809,-14.922 h 34.125 c -6.406,-33.223 -17.718,-96.254 -22.25,-120.742 -10.617,-57.332 -14.886,-93.344 -53.816,-111.614 l -2.91,-16.23 c 22.976,3.957 43.937,19.195 57.039,39.426 21.25,32.812 31.914,69.171 44.398,139.504 4.211,23.714 8.977,50.976 12.457,69.714 l 40.543,-0.058 c -0.148,1.242 26.664,-163.211 26.664,-163.211 h 55.414 l 50.836,112.019 0.868,-0.047 16.218,-111.972 h 55.414 l 86.253,178.156 h -57.503 l -47.949,-113.48 h -1.031 l -13.934,113.48 H 847.191 L 799,539.184 h -1.016 l -12.144,113.48 -92.149,-0.023 6.707,37.324 c 4.192,22.5 15.446,57.312 36.207,57.949 10.797,0.332 21.133,-5.605 27.473,-12.098 l 5.043,28.836"
         style="fill:#040606;fill-opacity:1;fill-rule:nonzero;stroke:none"
         id="path32" />
      <path
         d="m 1112.54,582.891 -24.72,32.48 h -0.19 v -32.48 h -15.7 v 70.547 h 15.7 v -28.696 h 0.28 l 23.78,28.696 h 20.12 l -28.67,-32.485 30.36,-38.062 h -20.96"
         style="fill:#040606;fill-opacity:1;fill-rule:nonzero;stroke:none"
         id="path34" />
      <path
         d="m 1144.5,653.477 h 16.45 v -70.586 h -16.45 v 70.586"
         style="fill:#040606;fill-opacity:1;fill-rule:nonzero;stroke:none"
         id="path36" />
      <path
         d="m 1180.5,653.477 h 42.11 v -14.805 h -25.66 v -12.836 h 20.49 v -14.809 h -20.49 v -13.328 h 26.97 v -14.808 h -43.42 v 70.586"
         style="fill:#040606;fill-opacity:1;fill-rule:nonzero;stroke:none"
         id="path38" />
      <path
         d="m 1239.53,653.477 h 16.45 v -55.778 h 27.45 v -14.808 h -43.9 v 70.586"
         style="fill:#040606;fill-opacity:1;fill-rule:nonzero;stroke:none"
         id="path40" />
      <path
         d="m 1332.63,653.578 h 6.36 v -70.687 h -6.36 v 70.687"
         style="fill:#768490;fill-opacity:1;fill-rule:nonzero;stroke:none"
         id="path42" />
      <path
         d="m 1362.75,653.578 h 6.18 l 33.08,-50.879 c 2.21,-3.519 5.35,-9.551 5.35,-9.551 h 0.18 c 0,0 -0.55,5.832 -0.55,9.551 v 50.879 h 6.36 v -70.687 h -6.18 l -33.08,50.879 c -2.21,3.519 -5.35,9.554 -5.35,9.554 h -0.19 c 0,0 0.56,-5.832 0.56,-9.554 v -50.879 h -6.36 v 70.687"
         style="fill:#768490;fill-opacity:1;fill-rule:nonzero;stroke:none"
         id="path44" />
      <path
         d="m 1432.85,596.066 c 0,0 6.73,-7.746 16.96,-7.746 7.09,0 12.9,4.625 12.9,12.27 0,17.801 -32.35,13.273 -32.35,35.191 0,10.157 8.2,19.008 20.19,19.008 11.24,0 17.32,-6.84 17.32,-6.84 l -3.13,-5.828 c 0,0 -5.72,6.027 -14.19,6.027 -8.3,0 -13.65,-5.929 -13.65,-12.168 0,-16.789 32.35,-11.96 32.35,-35.191 0,-10.559 -7.46,-19.105 -19.63,-19.105 -13.27,0 -20.55,9.05 -20.55,9.05 l 3.78,5.332"
         style="fill:#768490;fill-opacity:1;fill-rule:nonzero;stroke:none"
         id="path46" />
      <path
         d="m 1497.98,647.348 h -23.31 v 6.23 h 52.9 v -6.23 h -23.22 v -64.457 h -6.37 v 64.457"
         style="fill:#768490;fill-opacity:1;fill-rule:nonzero;stroke:none"
         id="path48" />
      <path
         d="m 1538.97,653.578 h 6.36 v -70.687 h -6.36 v 70.687"
         style="fill:#768490;fill-opacity:1;fill-rule:nonzero;stroke:none"
         id="path50" />
      <path
         d="m 1579.6,647.348 h -23.32 v 6.23 h 52.9 v -6.23 h -23.22 v -64.457 h -6.36 v 64.457"
         style="fill:#768490;fill-opacity:1;fill-rule:nonzero;stroke:none"
         id="path52" />
      <path
         d="m 1618.65,653.578 h 6.45 v -45.949 c 0,-12.168 7.19,-19.508 18.34,-19.508 11.15,0 18.44,7.34 18.44,19.707 v 45.75 h 6.35 v -46.055 c 0,-15.683 -10.04,-25.839 -24.69,-25.839 -14.75,0 -24.89,10.156 -24.89,25.839 v 46.055"
         style="fill:#768490;fill-opacity:1;fill-rule:nonzero;stroke:none"
         id="path54" />
      <path
         d="m 1700.74,647.348 h -23.32 v 6.23 h 52.9 v -6.23 h -23.23 v -64.457 h -6.35 v 64.457"
         style="fill:#768490;fill-opacity:1;fill-rule:nonzero;stroke:none"
         id="path56" />
      <path
         d="m 1740.16,653.578 h 36.5 v -6.23 h -30.14 v -25.743 h 24.6 v -6.234 h -24.6 v -26.246 h 31.8 v -6.234 h -38.16 v 70.687"
         style="fill:#768490;fill-opacity:1;fill-rule:nonzero;stroke:none"
         id="path58" />
      <path
         d="m 1817.35,653.578 h 34.11 v -6.23 h -27.74 v -26.547 h 23.77 v -6.235 h -23.77 v -31.675 h -6.37 v 70.687"
         style="fill:#768490;fill-opacity:1;fill-rule:nonzero;stroke:none"
         id="path60" />
      <path
         d="m 1893.28,588.121 c 14.56,0 26.35,13.27 26.35,30.567 0,16.894 -11.79,29.667 -26.35,29.667 -14.66,0 -26.37,-12.773 -26.37,-29.667 0,-17.297 11.71,-30.567 26.37,-30.567 z m 0,66.668 c 18.34,0 32.99,-15.789 32.99,-36.101 0,-20.715 -14.65,-37.004 -32.99,-37.004 -18.35,0 -33,16.289 -33,37.004 0,20.312 14.65,36.101 33,36.101"
         style="fill:#768490;fill-opacity:1;fill-rule:nonzero;stroke:none"
         id="path62" />
      <path
         d="m 1959.79,618.891 c 7.83,0 12.8,5.527 12.8,14.375 0,5.836 -2.12,10.156 -5.9,12.375 -1.93,1.101 -4.23,1.707 -9.21,1.707 h -13.09 v -28.457 z m -21.76,34.687 h 19.17 c 6.64,0 9.59,-0.703 12.17,-1.906 6.08,-2.918 9.77,-9.656 9.77,-18.199 0,-9.559 -4.98,-16.895 -12.26,-19.106 v -0.203 c 0,0 0.64,-0.906 1.66,-2.816 l 14.1,-28.457 h -7.28 l -14.65,29.765 h -16.32 v -29.765 h -6.36 v 70.687"
         style="fill:#768490;fill-opacity:1;fill-rule:nonzero;stroke:none"
         id="path64" />
      <path
         d="m 1093.96,539.352 h -23.08 v 6.23 h 52.37 v -6.23 h -22.99 v -64.457 h -6.3 v 64.457"
         style="fill:#768490;fill-opacity:1;fill-rule:nonzero;stroke:none"
         id="path66" />
      <path
         d="m 1134.71,545.582 h 6.3 v -32.18 h 37.22 v 32.18 h 6.3 v -70.687 h -6.3 v 32.277 h -37.22 v -32.277 h -6.3 v 70.687"
         style="fill:#768490;fill-opacity:1;fill-rule:nonzero;stroke:none"
         id="path68" />
      <path
         d="m 1204.64,545.582 h 36.14 v -6.23 h -29.84 v -25.743 h 24.36 v -6.238 h -24.36 v -26.242 h 31.48 v -6.234 h -37.78 v 70.687"
         style="fill:#768490;fill-opacity:1;fill-rule:nonzero;stroke:none"
         id="path70" />
      <path
         d="m 1317.82,535.227 c 0,0 -1,-6.032 -2.1,-10.559 l -12.22,-49.773 h -7.58 l -16.6,70.687 h 6.56 l 12.42,-54.902 c 0.82,-3.617 1.46,-7.539 1.46,-7.539 h 0.18 c 0.09,0 0.54,3.922 1.46,7.539 l 13.5,54.902 h 6.02 l 13.51,-54.902 c 0.91,-3.617 1.37,-7.539 1.46,-7.539 h 0.18 c 0,0 0.64,3.922 1.46,7.539 l 12.87,54.902 h 6.57 l -17.07,-70.687 h -7.57 l -12.23,49.773 c -1.09,4.527 -2.1,10.559 -2.1,10.559 h -0.18"
         style="fill:#768490;fill-opacity:1;fill-rule:nonzero;stroke:none"
         id="path72" />
      <path
         d="m 1398.69,480.121 c 14.42,0 26.1,13.274 26.1,30.567 0,16.894 -11.68,29.667 -26.1,29.667 -14.51,0 -26.09,-12.773 -26.09,-29.667 0,-17.293 11.58,-30.567 26.09,-30.567 z m 0,66.672 c 18.16,0 32.67,-15.793 32.67,-36.105 0,-20.711 -14.51,-37 -32.67,-37 -18.16,0 -32.66,16.289 -32.66,37 0,20.312 14.5,36.105 32.66,36.105"
         style="fill:#768490;fill-opacity:1;fill-rule:nonzero;stroke:none"
         id="path74" />
      <path
         d="m 1468.16,510.895 c 7.76,0 12.69,5.527 12.69,14.375 0,5.835 -2.1,10.156 -5.84,12.371 -1.92,1.105 -4.2,1.711 -9.13,1.711 h -12.95 v -28.457 z m -21.53,34.687 h 18.98 c 6.57,0 9.49,-0.703 12.05,-1.91 6.02,-2.914 9.67,-9.652 9.67,-18.199 0,-9.555 -4.93,-16.895 -12.14,-19.106 v -0.199 c 0,0 0.64,-0.91 1.65,-2.816 l 13.96,-28.457 h -7.21 l -14.51,29.765 h -16.15 v -29.765 h -6.3 v 70.687"
         style="fill:#768490;fill-opacity:1;fill-rule:nonzero;stroke:none"
         id="path76" />
      <path
         d="m 1506.72,545.582 h 6.3 v -64.453 h 29.74 v -6.234 h -36.04 v 70.687"
         style="fill:#768490;fill-opacity:1;fill-rule:nonzero;stroke:none"
         id="path78" />
      <path
         d="m 1574.76,481.129 c 15.78,0 26.28,10.254 26.28,29.16 0,18.805 -10.59,29.063 -26.28,29.063 h -13.78 v -58.223 z m -20.08,64.453 h 20.72 c 19.25,0 32.21,-12.969 32.21,-35.293 0,-22.523 -12.96,-35.394 -32.21,-35.394 h -20.72 v 70.687"
         style="fill:#768490;fill-opacity:1;fill-rule:nonzero;stroke:none"
         id="path80" />
      <path
         d="m 1651.24,545.582 h 36.13 v -6.23 h -29.84 v -25.743 h 24.36 v -6.238 h -24.36 v -26.242 h 31.48 v -6.234 h -37.77 v 70.687"
         style="fill:#768490;fill-opacity:1;fill-rule:nonzero;stroke:none"
         id="path82" />
      <path
         d="m 1731.86,546.793 c 15.33,0 23.09,-9.152 23.09,-9.152 l -3.38,-5.129 c 0,0 -7.48,7.843 -19.52,7.843 -15.06,0 -25.83,-12.871 -25.83,-29.566 0,-16.891 10.77,-30.668 26.01,-30.668 12.96,0 20.8,9.453 20.8,9.453 l 3.65,-4.926 c 0,0 -8.76,-10.96 -24.54,-10.96 -18.98,0 -32.49,16.39 -32.49,37 0,20.519 13.87,36.105 32.21,36.105"
         style="fill:#768490;fill-opacity:1;fill-rule:nonzero;stroke:none"
         id="path84" />
      <path
         d="m 1796.6,480.121 c 14.42,0 26.1,13.274 26.1,30.567 0,16.894 -11.68,29.667 -26.1,29.667 -14.51,0 -26.1,-12.773 -26.1,-29.667 0,-17.293 11.59,-30.567 26.1,-30.567 z m 0,66.672 c 18.16,0 32.66,-15.793 32.66,-36.105 0,-20.711 -14.5,-37 -32.66,-37 -18.16,0 -32.67,16.289 -32.67,37 0,20.312 14.51,36.105 32.67,36.105"
         style="fill:#768490;fill-opacity:1;fill-rule:nonzero;stroke:none"
         id="path86" />
      <path
         d="m 1843.9,545.582 h 6.11 l 32.76,-50.879 c 2.2,-3.519 5.3,-9.551 5.3,-9.551 h 0.18 c 0,0 -0.55,5.828 -0.55,9.551 v 50.879 h 6.3 v -70.687 h -6.11 l -32.76,50.878 c -2.2,3.52 -5.3,9.555 -5.3,9.555 h -0.18 c 0,0 0.55,-5.836 0.55,-9.555 v -50.878 h -6.3 v 70.687"
         style="fill:#768490;fill-opacity:1;fill-rule:nonzero;stroke:none"
         id="path88" />
      <path
         d="m 1938.93,480.121 c 14.41,0 26.09,13.274 26.09,30.567 0,16.894 -11.68,29.667 -26.09,29.667 -14.51,0 -26.1,-12.773 -26.1,-29.667 0,-17.293 11.59,-30.567 26.1,-30.567 z m 0,66.672 c 18.15,0 32.66,-15.793 32.66,-36.105 0,-20.711 -14.51,-37 -32.66,-37 -18.16,0 -32.67,16.289 -32.67,37 0,20.312 14.51,36.105 32.67,36.105"
         style="fill:#768490;fill-opacity:1;fill-rule:nonzero;stroke:none"
         id="path90" />
      <path
         d="m 1987.6,545.582 h 6.57 l 16.79,-41.527 c 1.46,-3.621 3.1,-8.649 3.1,-8.649 h 0.18 c 0,0 1.74,5.028 3.2,8.649 l 16.79,41.527 h 6.48 l 5.11,-70.687 h -6.3 l -3.56,49.472 c -0.27,3.821 -0.18,9.852 -0.18,9.852 h -0.18 c 0,0 -1.92,-6.235 -3.38,-9.852 l -15.06,-36.301 h -5.92 l -15.06,36.301 c -1.46,3.52 -3.47,10.051 -3.47,10.051 h -0.18 c 0,0 0.09,-6.23 -0.19,-10.051 l -3.56,-49.472 h -6.29 l 5.11,70.687"
         style="fill:#768490;fill-opacity:1;fill-rule:nonzero;stroke:none"
         id="path92" />
      <path
         d="m 2076.96,505.258 -21.62,40.324 h 7.21 l 13.59,-25.641 c 1.92,-3.617 3.93,-8.445 3.93,-8.445 h 0.18 c 0,0 1.91,4.727 3.92,8.445 l 13.6,25.641 h 7.12 l -21.54,-40.324 v -30.363 h -6.39 v 30.363"
         style="fill:#768490;fill-opacity:1;fill-rule:nonzero;stroke:none"
         id="path94" />
    </g>
  </g>
</svg>
