<?xml version="1.0" standalone="no"?>
<!DOCTYPE svg PUBLIC "-//W3C//DTD SVG 20010904//EN"
 "http://www.w3.org/TR/2001/REC-SVG-20010904/DTD/svg10.dtd">
<svg version="1.0" xmlns="http://www.w3.org/2000/svg"
 width="986.000000pt" height="986.000000pt" viewBox="0 0 986.000000 986.000000"
 preserveAspectRatio="xMidYMid meet">
<metadata>
Created by potrace 1.14, written by Peter Selinger 2001-2017
</metadata>
<g transform="translate(0.000000,986.000000) scale(0.100000,-0.100000)"
fill="#000000" stroke="none">
<path d="M1965 9830 c-9 -40 0 -51 41 -45 18 2 34 1 34 -3 0 -12 -57 -42 -65
-34 -4 4 -5 -2 -3 -13 2 -11 8 -20 15 -20 23 0 23 -13 -1 -28 -23 -15 -100
-31 -139 -29 -23 1 -76 38 -110 78 -52 61 -94 61 -152 0 -22 -24 -51 -48 -63
-55 -30 -16 -78 -5 -96 21 -14 19 -77 39 -136 42 -22 1 -25 -3 -25 -30 -1 -22
-11 -41 -33 -63 -18 -18 -30 -37 -27 -41 9 -14 -41 -42 -88 -50 -29 -6 -50 -4
-68 5 -14 8 -35 12 -46 9 -12 -3 -24 -1 -27 5 -4 6 -15 11 -25 11 -10 0 -24 7
-31 15 -15 18 -61 20 -78 3 -7 -7 -38 -22 -70 -33 -53 -19 -57 -22 -57 -52 -1
-53 -90 -126 -123 -100 -8 6 -12 5 -12 -4 0 -9 -7 -6 -18 7 -12 15 -33 23 -68
27 -46 5 -53 4 -57 -14 -5 -17 -9 -19 -26 -10 -11 6 -37 11 -58 11 -48 0 -129
24 -149 45 -23 23 -74 127 -74 152 0 13 -12 31 -30 43 -16 12 -30 17 -30 12 0
-6 -8 -8 -19 -5 -12 3 -24 -3 -35 -18 -15 -22 -16 -420 -16 -4846 l0 -4823
4930 0 4930 0 0 4930 0 4930 -3028 0 -3029 0 -23 -25 c-53 -56 -141 -55 -120
1 l10 24 -849 0 -849 0 -7 -30z m-1690 -490 c3 -5 12 -7 19 -4 8 3 16 -4 19
-15 5 -22 4 -23 -53 -25 -31 -1 -38 -6 -59 -48 -25 -48 -40 -61 -59 -49 -8 5
-8 17 2 45 13 36 33 59 46 51 4 -2 14 8 22 23 16 27 52 39 63 22z m4321 -410
c15 -6 69 -12 121 -14 53 -2 99 -9 108 -16 11 -9 18 -9 30 3 18 18 60 7 112
-30 25 -18 31 -29 30 -58 -1 -19 -5 -36 -9 -36 -4 -1 -12 -2 -17 -3 -5 0 -12
-4 -16 -8 -4 -4 -23 9 -43 28 -19 19 -41 34 -49 34 -19 0 -16 -37 6 -59 29
-29 35 -58 15 -69 -31 -17 -23 -42 27 -90 47 -44 60 -74 39 -87 -5 -3 -42 26
-82 64 l-73 70 -73 7 c-40 3 -75 10 -78 15 -8 13 -42 11 -46 -3 -3 -9 -11 -8
-29 5 -13 9 -34 24 -47 33 -26 19 -41 12 -22 -11 20 -24 21 -62 2 -70 -9 -3
-40 -3 -69 1 -45 5 -53 4 -53 -10 0 -9 7 -19 15 -22 8 -4 15 -12 15 -18 0 -7
17 -20 37 -30 33 -15 35 -19 20 -28 -12 -6 -16 -16 -12 -28 6 -18 4 -18 -37 2
-50 24 -118 36 -118 20 0 -6 -9 -16 -20 -22 -16 -8 -31 -6 -67 10 -25 11 -48
18 -51 15 -3 -3 0 -5 7 -5 6 0 23 -11 36 -25 28 -27 34 -58 10 -49 -8 4 -15 1
-15 -5 0 -8 11 -10 35 -5 23 4 35 2 35 -5 0 -6 -6 -11 -14 -11 -8 0 -28 -8
-45 -17 -30 -18 -31 -18 -46 5 -9 12 -22 22 -28 22 -7 0 -39 14 -71 30 -58 30
-116 40 -116 20 0 -5 -16 -10 -35 -10 -38 0 -40 -2 -25 -31 9 -16 7 -19 -8
-19 -21 0 -56 -33 -45 -43 3 -4 16 -7 27 -7 20 -1 20 -2 4 -14 -10 -7 -18 -18
-18 -24 0 -7 -26 -12 -62 -14 -70 -3 -84 -18 -35 -36 38 -14 44 -47 14 -83
-10 -11 -16 -27 -14 -33 6 -15 -58 -46 -94 -46 -14 0 -29 -4 -35 -10 -5 -5
-32 -21 -59 -34 -36 -18 -44 -25 -28 -25 25 -1 39 -16 23 -26 -17 -10 -11 -25
10 -25 18 0 18 -3 8 -27 -6 -16 -26 -44 -43 -63 -45 -48 -85 -111 -85 -131 0
-9 -15 -39 -33 -65 -30 -46 -48 -91 -62 -157 -5 -25 -8 -27 -21 -16 -11 9 -14
22 -10 41 4 21 2 28 -9 28 -8 0 -15 8 -15 18 0 19 58 88 71 84 5 -1 8 1 8 5
-4 23 3 33 21 33 23 0 39 45 22 62 -6 6 -8 17 -5 24 4 10 -3 14 -21 14 -14 0
-26 -4 -26 -9 0 -5 -11 -16 -25 -25 -24 -16 -25 -16 -15 10 14 37 5 42 -25 14
-35 -33 -74 -105 -90 -167 -7 -28 -19 -61 -25 -73 -13 -24 -37 -22 -32 4 2 9
-8 21 -23 28 -38 17 -34 64 10 119 19 24 40 60 46 79 7 19 24 49 40 67 15 17
31 42 35 55 4 13 17 37 30 54 13 17 24 34 24 37 0 3 13 27 29 54 32 53 47 103
31 103 -20 0 -9 21 20 38 16 9 30 22 30 27 1 28 90 104 138 120 26 8 39 44 21
56 -16 9 -13 12 26 25 18 6 30 16 30 27 0 10 5 21 10 25 6 4 16 20 23 35 10
23 9 29 -3 33 -29 12 -2 25 43 22 44 -3 47 -2 52 26 4 25 12 30 59 42 63 17
71 21 71 38 0 8 12 22 27 31 22 15 32 16 57 7 36 -12 86 -6 102 13 5 8 28 15
50 17 22 2 39 8 39 15 0 17 34 39 70 46 17 3 48 10 70 16 22 6 57 11 79 11 30
0 37 3 32 15 -4 11 2 15 24 15 18 0 37 8 47 20 19 22 57 26 99 10z m-4423 -47
c11 -10 17 -12 13 -5 -4 6 -2 12 3 12 6 0 11 -13 11 -30 0 -16 -4 -30 -10 -30
-5 0 -19 -9 -30 -20 -12 -12 -26 -18 -33 -13 -12 8 -17 9 -37 12 -16 2 -12 14
21 54 35 43 36 43 62 20z m5072 -193 c8 -13 -5 -13 -25 0 -13 8 -13 10 2 10 9
0 20 -4 23 -10z m-132 -18 c50 0 57 -9 16 -20 l-34 -8 24 -13 c13 -7 34 -11
48 -8 23 4 74 -9 101 -26 7 -5 21 -6 31 -2 25 8 77 -39 85 -77 5 -22 3 -25
-13 -21 -10 3 -22 0 -25 -6 -5 -7 -22 -1 -51 19 -24 16 -55 34 -69 40 -14 5
-26 14 -26 20 0 11 -50 14 -50 3 0 -5 36 -42 81 -83 81 -75 103 -115 47 -86
-14 8 -42 19 -61 25 -19 7 -45 21 -58 31 -41 36 -48 21 -11 -22 13 -16 13 -18
0 -18 -20 0 -157 145 -169 179 -15 37 6 50 24 15 9 -16 31 -45 51 -63 32 -31
36 -33 36 -14 0 11 -7 26 -15 33 -8 7 -12 16 -9 21 3 5 -2 19 -10 31 -9 12
-16 33 -16 46 0 19 3 21 18 13 9 -5 34 -9 55 -9z m-413 -122 c13 -8 13 -10 -2
-10 -9 0 -20 5 -23 10 -8 13 5 13 25 0z m760 -75 c13 -14 19 -25 13 -25 -5 0
-20 11 -33 25 -13 14 -19 25 -13 25 5 0 20 -11 33 -25z m110 -115 c0 -5 -4
-10 -9 -10 -6 0 -13 5 -16 10 -3 6 1 10 9 10 9 0 16 -4 16 -10z m394 -116 c9
-9 29 -19 43 -23 22 -6 28 -14 29 -38 2 -33 -13 -43 -63 -43 -28 0 -30 20 -3
27 28 7 25 20 -9 38 -34 17 -45 31 -36 45 9 14 21 12 39 -6z m-581 -65 c37
-12 80 -31 95 -44 27 -22 75 -49 202 -110 30 -15 75 -41 100 -59 73 -52 148
-70 134 -32 -3 8 5 16 20 20 14 3 26 13 26 21 0 17 18 19 54 5 15 -5 26 -17
26 -28 0 -10 15 -35 34 -55 18 -20 31 -39 28 -41 -2 -3 1 -19 7 -37 16 -45 7
-47 -29 -5 -18 20 -38 36 -46 36 -8 0 -14 4 -14 10 0 5 -10 14 -22 21 -18 10
-20 9 -14 -6 9 -25 -2 -37 -25 -24 -11 6 -28 8 -36 5 -14 -6 -13 -10 7 -31 12
-13 20 -30 18 -37 -3 -7 -1 -26 4 -43 38 -129 57 -375 33 -414 -4 -7 1 -24 11
-38 11 -17 13 -28 6 -31 -7 -2 -7 -12 0 -34 9 -26 8 -33 -7 -44 -16 -12 -18
-27 -16 -106 1 -51 4 -109 7 -128 3 -19 7 -51 8 -70 4 -35 7 -48 47 -217 11
-50 18 -97 14 -103 -4 -6 0 -30 8 -53 8 -23 25 -94 37 -157 12 -63 34 -140 48
-170 21 -45 26 -68 24 -125 -1 -45 -7 -74 -15 -80 -8 -5 -12 -16 -10 -23 3 -7
-15 -35 -38 -64 -50 -59 -69 -92 -69 -119 0 -11 -4 -19 -10 -19 -5 0 -10 -9
-10 -21 0 -11 -13 -33 -30 -47 -21 -19 -30 -36 -30 -58 0 -18 -8 -38 -20 -49
-11 -10 -20 -24 -20 -31 0 -7 -6 -19 -13 -26 -19 -19 -28 -48 -16 -48 6 0 7
-9 3 -22 -4 -13 -7 -34 -6 -46 1 -16 -5 -26 -18 -29 -21 -6 -29 -25 -8 -21 16
4 29 -63 16 -79 -6 -7 -20 -13 -31 -13 -32 0 -58 -29 -47 -51 6 -11 17 -16 25
-12 13 4 14 1 6 -20 -8 -20 -7 -27 7 -32 13 -5 14 -8 3 -14 -11 -7 -11 -15 0
-45 l13 -36 13 31 c7 17 10 35 7 41 -3 5 3 16 14 24 12 8 23 31 27 53 4 22 15
50 26 62 14 16 18 31 13 54 -4 24 -2 34 10 38 9 4 16 12 16 20 0 7 9 13 21 14
32 3 69 31 69 53 0 24 17 35 33 22 20 -17 50 12 45 43 -3 14 -1 28 3 31 5 3 6
16 3 30 -3 13 -2 30 4 37 10 13 15 43 37 214 24 195 60 273 78 169 6 -35 18
-61 43 -88 18 -21 34 -42 34 -48 0 -5 15 -23 33 -39 88 -80 99 -85 117 -52 15
29 12 64 -10 116 -11 26 -20 55 -20 66 0 19 -20 43 -68 81 -29 23 -28 42 2 56
21 9 24 16 20 44 -5 30 -2 35 35 56 63 35 76 30 101 -34 11 -31 30 -77 42
-103 12 -25 21 -52 21 -58 0 -24 11 -3 32 64 11 37 25 68 30 70 6 2 11 -61 13
-165 6 -292 -27 -415 -155 -587 -65 -87 -105 -125 -164 -155 -64 -33 -105 -22
-167 44 -19 20 -42 36 -53 36 -10 0 -19 4 -19 9 0 5 -9 12 -20 16 -11 3 -19
12 -17 18 1 7 -5 12 -13 12 -12 0 -14 -12 -12 -58 2 -45 0 -59 -12 -63 -20 -8
-50 -70 -42 -86 3 -7 11 -21 18 -30 15 -21 9 -27 -25 -30 -26 -2 -42 -22 -32
-38 3 -5 21 -6 40 -3 l35 6 0 -41 c0 -31 -4 -41 -20 -45 -20 -5 -24 -11 -34
-59 -4 -16 -13 -28 -21 -28 -8 0 -16 -7 -16 -15 -3 -35 -5 -40 -17 -38 -7 2
-11 0 -11 -5 4 -22 -3 -50 -16 -67 -46 -61 -55 -69 -62 -59 -5 6 -16 13 -25
17 -15 5 -18 1 -18 -23 0 -21 -5 -30 -16 -30 -12 0 -14 -7 -9 -29 7 -32 -12
-54 -21 -24 -3 10 -10 27 -14 38 -7 15 -8 12 -4 -10 5 -27 -2 -38 -61 -98 -36
-37 -70 -67 -76 -67 -5 0 -9 -6 -9 -12 0 -7 -18 -30 -40 -52 -21 -21 -42 -51
-45 -66 -5 -21 -12 -27 -30 -27 -13 0 -37 -10 -55 -23 -23 -17 -34 -19 -44
-11 -11 9 -18 8 -30 -4 -9 -9 -20 -14 -25 -10 -5 3 -12 1 -16 -5 -10 -17 -36
-11 -54 12 -19 22 -41 18 -41 -9 0 -10 -6 -14 -20 -10 -13 3 -20 0 -20 -10 0
-8 -4 -12 -9 -9 -5 3 -11 -3 -14 -14 -3 -11 -13 -20 -23 -20 -9 0 -32 -18 -51
-40 -21 -24 -39 -37 -48 -33 -8 3 -15 0 -15 -6 0 -6 -4 -11 -10 -11 -5 0 -10
7 -10 15 0 8 8 15 17 15 15 0 14 2 -3 19 -11 11 -23 15 -28 10 -15 -14 -49
-11 -73 6 -24 17 -37 7 -22 -15 13 -21 11 -42 -3 -38 -7 3 -15 20 -18 38 -3
18 -11 35 -18 36 -7 1 -8 0 -2 -3 14 -7 12 -43 -2 -43 -7 1 -24 7 -38 14 -21
12 -30 12 -57 1 -29 -12 -33 -12 -33 2 0 10 -6 13 -16 9 -9 -3 -24 -6 -35 -6
-10 0 -19 -6 -19 -14 0 -17 -27 -29 -35 -16 -9 14 -23 12 -27 -4 -2 -11 -11
-11 -53 -1 -29 8 -51 9 -53 4 -5 -11 -49 -12 -56 -1 -9 15 -73 12 -86 -4 -8
-8 -21 -12 -31 -9 -13 4 -19 1 -19 -9 0 -18 -23 -21 -51 -5 -16 8 -26 5 -55
-20 -38 -34 -54 -39 -54 -16 0 8 -7 15 -15 15 -8 0 -15 5 -15 10 0 6 -12 10
-27 11 -16 0 -37 4 -48 8 -24 9 -85 -8 -85 -24 0 -6 10 -21 23 -32 12 -11 56
-57 97 -102 122 -134 135 -147 187 -174 27 -14 93 -55 147 -91 54 -36 107 -68
117 -71 11 -4 19 -10 19 -14 0 -4 17 -13 38 -19 141 -43 184 -54 240 -59 34
-3 62 -10 62 -14 0 -5 25 -9 55 -9 43 0 65 6 97 26 23 15 57 33 75 40 18 8 33
19 33 24 0 6 5 10 11 10 16 0 101 42 117 58 7 6 22 12 33 12 10 0 28 9 39 20
11 11 24 20 29 20 5 0 18 11 29 25 11 14 22 25 24 25 7 0 215 210 308 310 47
51 94 102 106 114 11 11 36 49 54 84 18 34 37 62 41 62 5 0 9 11 9 24 0 14 4
27 9 30 15 10 51 86 51 109 0 12 6 31 13 42 8 11 19 40 26 65 7 25 20 56 30
69 18 23 19 23 28 5 10 -21 10 -22 -1 -75 -6 -28 -4 -43 9 -63 9 -14 14 -29
11 -34 -3 -5 3 -20 13 -33 14 -18 20 -49 24 -129 4 -58 14 -163 22 -235 9 -71
20 -168 26 -215 5 -46 16 -95 24 -107 8 -12 15 -28 14 -35 0 -21 -264 -200
-499 -339 -57 -34 -177 -123 -409 -303 -103 -80 -137 -113 -151 -144 -20 -45
-72 -97 -143 -144 -32 -21 -46 -37 -42 -47 3 -8 -7 -28 -24 -45 -16 -17 -31
-44 -34 -61 -45 -267 -49 -277 -149 -362 -44 -37 -104 -81 -134 -98 -29 -16
-54 -35 -54 -41 0 -6 -7 -18 -17 -25 -9 -8 -22 -28 -29 -45 -11 -27 -20 -33
-70 -42 -76 -16 -73 -19 -129 128 -10 25 -21 54 -26 65 -4 11 -15 44 -23 73
-8 29 -21 65 -29 80 -8 15 -25 47 -37 72 -40 79 -91 160 -101 160 -18 0 -21
-30 -5 -55 17 -26 13 -75 -6 -75 -6 0 -8 -7 -5 -15 4 -8 1 -17 -4 -21 -7 -4
-9 3 -8 18 2 14 -4 32 -14 42 -9 10 -17 27 -17 39 0 18 -8 48 -28 107 -3 8 -6
20 -8 25 -4 13 -27 154 -69 425 -19 124 -40 252 -45 285 -6 33 -20 123 -31
200 -11 77 -31 203 -44 280 -13 77 -26 172 -30 210 -12 145 -14 153 -54 195
-62 67 -216 281 -249 347 -29 58 -60 167 -77 272 -13 88 -17 96 -49 123 -19
15 -43 43 -54 61 -36 57 -91 241 -97 324 -11 125 -33 231 -59 276 -28 49 -42
112 -51 222 -6 72 -5 79 9 65 17 -16 38 -84 57 -180 18 -88 50 -137 62 -92 20
70 27 126 25 182 l-3 65 -50 33 c-37 24 -59 32 -85 30 -32 -3 -35 0 -38 26
-11 97 123 157 183 82 l20 -26 18 148 c26 216 8 384 -64 597 -12 36 -16 62
-25 175 -3 47 -11 94 -17 105 -18 33 -16 87 5 128 10 21 16 42 12 48 -3 6 -2
21 4 32 5 12 19 45 32 73 12 28 40 71 62 95 22 24 51 65 64 90 13 26 47 78 75
115 53 70 89 141 89 174 0 38 85 55 124 25 28 -21 55 -18 105 10 23 14 52 25
62 25 11 0 41 12 68 26 35 18 63 25 98 23 26 0 73 6 103 15 30 9 72 16 93 16
21 0 48 5 59 11 54 29 227 56 257 39 18 -9 21 -8 21 10 0 21 16 28 22 10 4
-14 169 -40 187 -30 8 4 26 4 39 -1 33 -13 165 -1 174 16 4 7 27 16 50 19 33
5 55 18 95 56 70 66 117 71 256 29z m717 -76 c17 -14 30 -32 30 -39 0 -7 15
-18 34 -24 19 -6 37 -17 40 -25 3 -8 23 -19 46 -26 22 -7 39 -17 38 -23 -3
-16 26 -68 51 -90 12 -11 21 -25 21 -31 0 -20 25 -63 54 -92 15 -14 24 -33 21
-41 -3 -7 -5 -18 -5 -23 0 -20 -30 -8 -47 19 -9 15 -34 46 -56 69 -24 25 -37
47 -34 57 5 14 -50 66 -70 66 -14 0 -14 -52 0 -69 18 -22 41 -80 34 -87 -10
-11 -27 7 -48 49 -12 23 -40 60 -63 83 -115 113 -140 146 -143 189 -3 35 1 44
19 53 35 16 46 14 78 -15z m-2833 -530 c-3 -10 -15 -49 -25 -86 -12 -42 -31
-80 -47 -98 -20 -20 -25 -32 -18 -41 7 -9 5 -46 -5 -116 -12 -77 -13 -105 -4
-111 8 -5 6 -15 -8 -36 -11 -17 -20 -35 -20 -42 0 -6 -5 -24 -10 -39 -8 -19
-14 -24 -21 -17 -8 8 -8 17 0 31 9 16 7 22 -11 34 l-22 15 21 69 c53 169 54
175 36 205 -16 27 -16 29 5 52 27 29 28 47 3 74 -28 30 -8 66 42 74 22 3 44
15 53 28 18 25 39 28 31 4z m-128 -705 c0 -28 -2 -30 -9 -13 -12 28 -12 45 0
45 6 0 10 -15 9 -32z m0 -89 c-16 -10 -23 -4 -14 10 3 6 11 8 17 5 6 -4 5 -9
-3 -15z m3504 -350 c31 -16 57 -50 57 -76 0 -27 -2 -28 -40 -8 -28 14 -33 14
-72 -4 -49 -22 -136 -104 -158 -147 -8 -16 -29 -48 -48 -71 -29 -38 -38 -43
-73 -43 l-39 0 0 45 c0 50 20 135 32 135 4 0 17 18 28 40 11 22 26 40 34 40 7
0 21 9 32 21 52 58 192 96 247 68z m-523 -910 c0 -6 -4 -7 -10 -4 -5 3 -10 11
-10 16 0 6 5 7 10 4 6 -3 10 -11 10 -16z m-38 -321 c-7 -7 -12 -8 -12 -2 0 14
12 26 19 19 2 -3 -1 -11 -7 -17z m-1552 -1089 c0 -14 -17 -10 -23 5 -4 10 -1
13 9 9 7 -3 14 -9 14 -14z m1997 -135 c2 -5 -3 -19 -12 -29 -14 -19 -14 -18
-15 13 0 31 18 42 27 16z m427 -670 c9 -3 16 -10 16 -16 0 -14 -43 -5 -48 10
-4 13 7 15 32 6z m336 -145 l25 -19 -54 0 c-44 0 -52 3 -47 16 3 9 6 19 6 23
0 13 44 1 70 -20z m70 -34 c10 -12 10 -15 -3 -15 -8 0 -20 7 -27 15 -10 12
-10 15 3 15 8 0 20 -7 27 -15z m-3714 -111 c-4 -9 -9 -15 -11 -12 -3 3 -3 13
1 22 4 9 9 15 11 12 3 -3 3 -13 -1 -22z m-4 -84 c-3 -8 -10 -22 -16 -30 -7 -8
-18 -28 -25 -45 -7 -16 -19 -43 -27 -58 -8 -16 -14 -33 -14 -39 0 -5 -6 -15
-13 -23 -7 -7 -19 -46 -26 -86 -7 -41 -19 -87 -26 -104 -30 -70 -86 -267 -87
-305 0 -25 -41 -174 -50 -185 -7 -8 -5 97 3 165 1 8 1 24 1 34 -2 18 -3 18
-21 2 -10 -10 -22 -33 -26 -53 -3 -20 -15 -52 -26 -72 -10 -20 -19 -43 -19
-51 0 -9 -4 -20 -9 -25 -5 -6 -26 -53 -46 -105 -49 -126 -59 -148 -115 -265
-27 -55 -58 -120 -70 -145 -92 -192 -166 -310 -193 -310 -9 0 1 41 12 50 3 3
19 30 35 60 16 30 35 62 42 71 8 8 14 20 14 26 0 6 8 21 18 34 10 13 24 40 32
59 7 19 44 99 82 177 37 78 68 146 68 151 0 5 7 15 15 22 8 7 15 20 15 29 0 8
11 38 24 66 13 27 32 73 41 100 38 114 66 192 79 220 8 17 30 65 50 108 20 42
36 87 36 100 0 12 7 31 15 41 8 11 15 37 15 58 0 22 7 53 16 69 8 17 17 40 20
52 2 11 14 32 27 46 13 14 40 61 60 103 23 47 45 79 57 83 11 4 20 12 21 18 0
7 4 3 8 -8 5 -11 6 -27 3 -35z m4110 39 c12 -7 49 -18 82 -26 33 -7 74 -22 91
-33 18 -11 41 -20 52 -20 28 0 83 -20 83 -31 0 -13 -123 1 -135 15 -11 14 -83
16 -102 3 -7 -4 -54 -17 -105 -28 -51 -11 -98 -25 -105 -31 -8 -6 -16 -8 -19
-5 -10 9 30 48 64 63 26 10 32 18 27 33 -7 24 14 71 32 71 8 0 24 -5 35 -11z
m501 -124 c100 -15 126 -24 161 -54 11 -9 16 -10 12 -3 -10 17 -3 15 37 -8 18
-11 77 -38 130 -59 53 -22 129 -63 169 -91 236 -166 236 -166 393 -251 22 -12
34 -24 28 -26 -7 -3 -23 3 -35 11 -12 9 -29 16 -38 16 -8 0 -38 9 -67 20 -29
12 -78 31 -109 43 -31 12 -68 35 -83 52 -31 34 -113 79 -121 65 -8 -13 -27 2
-31 25 -3 11 -9 20 -14 20 -11 0 -66 21 -102 37 -11 6 -38 8 -60 4 -21 -3 -55
-8 -76 -10 -21 -2 -46 -11 -56 -20 -10 -9 -31 -16 -47 -16 -17 0 -34 -4 -39
-9 -6 -5 -28 -14 -50 -21 -22 -7 -51 -21 -64 -31 -13 -11 -32 -19 -42 -19 -10
0 -33 -9 -51 -20 -39 -24 -55 -26 -38 -5 7 8 17 15 22 15 6 0 23 9 39 20 15
12 43 26 61 32 18 6 49 24 69 40 20 15 41 28 45 28 9 0 55 42 83 75 10 12 10
20 2 28 -8 8 -15 6 -27 -9 -8 -10 -14 -13 -12 -5 7 24 -45 69 -97 84 -69 20
-135 50 -135 61 0 4 10 6 23 2 12 -3 66 -13 120 -21z m-723 -55 c0 -5 -7 -10
-16 -10 -8 0 -12 5 -9 10 3 6 10 10 16 10 5 0 9 -4 9 -10z m342 -42 c-7 -7
-12 -8 -12 -2 0 14 12 26 19 19 2 -3 -1 -11 -7 -17z m-4542 -73 c0 -9 -8 -19
-17 -22 -10 -4 -54 -43 -98 -86 -50 -50 -100 -89 -132 -104 -29 -14 -53 -28
-53 -33 0 -11 -48 -57 -73 -71 -13 -7 -19 -6 -23 6 -7 18 33 68 47 59 12 -7
11 3 -1 26 -8 15 -6 23 8 37 10 10 22 26 25 36 4 9 13 17 22 17 8 0 15 7 15
15 0 12 -7 14 -27 9 -16 -4 -32 -11 -38 -15 -14 -13 -27 -11 -19 4 4 6 -1 4
-12 -5 -11 -9 -40 -20 -64 -24 -25 -4 -49 -10 -55 -14 -5 -4 -30 -11 -55 -15
-25 -4 -65 -16 -90 -26 -25 -10 -80 -28 -124 -39 -84 -21 -134 -47 -154 -79
-7 -12 -19 -21 -27 -21 -26 0 -87 -36 -130 -75 -21 -20 -53 -42 -70 -50 -18
-7 -53 -29 -79 -49 -26 -20 -54 -36 -62 -36 -7 0 -28 -9 -46 -20 -18 -11 -42
-20 -53 -20 -40 0 -135 -89 -135 -126 0 -12 -12 -36 -26 -53 -19 -24 -34 -31
-60 -31 -22 0 -34 -5 -34 -13 0 -8 -9 -22 -20 -32 -11 -10 -20 -24 -20 -30 0
-7 -12 -20 -26 -30 -14 -9 -32 -32 -40 -51 -8 -19 -19 -34 -24 -34 -6 0 -20
-20 -32 -45 -19 -39 -23 -42 -34 -27 -12 15 -13 15 -14 -6 0 -32 -18 -62 -35
-62 -8 0 -15 -3 -15 -8 0 -9 -58 -40 -85 -44 -12 -2 -27 -19 -38 -41 -9 -20
-23 -37 -31 -37 -8 0 -23 -16 -35 -35 -26 -45 -43 -46 -30 -3 12 43 59 109
131 183 51 53 80 88 141 166 9 13 17 30 17 39 1 21 34 93 52 110 9 8 65 60
126 114 100 89 114 106 145 175 67 145 215 242 394 256 110 10 223 37 365 90
68 26 150 53 183 61 33 9 77 20 97 25 21 5 88 15 150 23 135 17 236 39 275 60
36 19 43 20 43 1z m-118 -260 c0 -5 -5 -11 -11 -13 -6 -2 -11 4 -11 13 0 9 5
15 11 13 6 -2 11 -8 11 -13z m939 -47 c5 -19 3 -28 -8 -33 -18 -6 -17 -7 -32
22 -17 32 -13 45 11 41 14 -2 24 -13 29 -30z m4819 -89 c0 -20 -24 -26 -35 -9
-8 13 14 42 26 34 5 -3 9 -14 9 -25z m67 5 c5 -14 -38 -27 -50 -15 -5 5 -6 14
-2 21 8 14 47 9 52 -6z m-4879 -19 c-3 -13 -2 -24 1 -23 7 1 38 -10 61 -21 13
-7 67 -95 69 -113 2 -17 -37 -7 -50 12 -8 12 -38 26 -73 35 -80 21 -87 27 -74
72 12 44 27 62 52 63 14 0 17 -5 14 -25z m4546 -26 c31 5 8 -16 -25 -23 -17
-3 -44 -15 -60 -27 -17 -12 -39 -19 -49 -16 -10 3 -21 0 -23 -6 -2 -6 -15 -12
-30 -12 -15 -1 -35 -9 -46 -19 -13 -11 -27 -15 -40 -11 -15 5 -21 2 -21 -10 0
-13 -4 -14 -20 -5 -11 6 -20 7 -20 3 0 -11 -50 -33 -73 -33 -34 0 -1 27 48 39
24 6 47 15 50 21 3 5 17 10 30 10 13 0 26 4 29 8 3 5 33 17 68 28 35 10 81 28
103 40 22 12 45 19 50 15 6 -3 18 -4 29 -2z m-5354 -230 c-11 -38 -26 -55 -17
-19 4 14 7 31 7 38 0 6 4 12 9 12 6 0 6 -12 1 -31z m4780 7 c0 -3 -4 -8 -10
-11 -5 -3 -10 -1 -10 4 0 6 5 11 10 11 6 0 10 -2 10 -4z m-60 -31 c-7 -9 -15
-13 -19 -10 -3 3 1 10 9 15 21 14 24 12 10 -5z m-40 -29 c0 -2 -7 -6 -15 -10
-8 -3 -15 -1 -15 4 0 6 7 10 15 10 8 0 15 -2 15 -4z m-5195 -746 c-3 -5 -10
-10 -16 -10 -5 0 -9 5 -9 10 0 6 7 10 16 10 8 0 12 -4 9 -10z m-32 -63 c7 -17
-29 -61 -38 -46 -8 11 13 59 26 59 4 0 9 -6 12 -13z m-1676 -115 c-8 -10 -31
-51 -51 -92 -35 -74 -68 -125 -105 -165 -10 -11 -21 -30 -25 -43 -10 -30 -32
-22 -28 9 6 52 23 97 48 125 57 64 104 126 104 138 0 7 15 33 33 57 l32 44 3
-28 c2 -16 -3 -36 -11 -45z m-206 -399 c-9 -17 -10 -17 -16 0 -4 9 -4 25 0 35
6 16 7 16 16 0 7 -12 7 -24 0 -35z m-41 -181 c0 -7 -16 -35 -35 -62 -19 -27
-35 -53 -35 -58 0 -4 -14 -34 -30 -66 -17 -32 -31 -75 -32 -95 -1 -20 -8 -52
-17 -71 l-16 -35 -3 47 c-2 31 4 62 17 92 12 25 21 49 21 55 0 16 33 81 41 81
3 0 9 15 12 34 8 48 56 123 68 105 5 -8 9 -20 9 -27z"/>
<path d="M4750 8795 c-10 -12 -10 -15 3 -15 19 0 31 16 18 24 -5 3 -14 -1 -21
-9z"/>
<path d="M4890 6793 c-22 -28 -25 -28 -52 -1 -19 19 -23 20 -26 6 -2 -9 -12
-18 -23 -21 -12 -3 -17 -11 -13 -21 4 -11 1 -16 -10 -16 -9 0 -16 6 -17 13 0
6 -5 -1 -11 -16 -7 -19 -15 -26 -25 -23 -11 4 -13 1 -8 -14 4 -13 1 -22 -9
-26 -8 -3 -13 -11 -11 -17 2 -7 6 -34 9 -60 3 -34 11 -55 29 -73 22 -22 24
-29 15 -50 -10 -21 -8 -27 11 -40 14 -10 20 -22 16 -34 -3 -9 -1 -30 5 -45 9
-23 14 -26 38 -20 15 3 40 13 56 21 38 18 43 18 49 -6 3 -11 14 -20 24 -20 16
0 19 -6 15 -30 -3 -22 0 -30 11 -30 8 0 17 -7 21 -15 4 -12 -2 -14 -26 -12
-56 4 -45 -25 19 -54 90 -42 169 -49 133 -13 -7 7 22 11 95 12 125 2 183 16
196 49 5 14 29 33 64 48 49 23 60 24 96 15 29 -8 65 -8 127 -1 48 6 94 11 102
12 32 3 -48 17 -102 18 -32 0 -58 5 -58 10 0 8 14 15 93 43 17 6 37 15 42 20
9 8 -4 7 -115 -8 l-35 -5 43 23 c23 12 42 25 42 30 0 4 -26 5 -59 2 -42 -5
-66 -2 -87 8 -77 41 -90 44 -336 98 -54 12 -98 26 -98 31 0 14 58 47 115 65
28 10 52 20 55 24 16 23 122 15 185 -15 53 -24 79 -26 118 -10 43 18 47 30 12
39 -14 4 -25 12 -25 20 0 14 -63 42 -120 52 -19 3 -60 15 -89 26 -45 16 -70
18 -140 13 -49 -3 -136 0 -204 8 l-119 13 -18 -23z m238 -398 c9 -20 9 -25 -2
-25 -28 0 -46 12 -46 31 0 28 35 24 48 -6z m162 -49 c0 -11 -19 -15 -25 -6 -3
5 1 10 9 10 9 0 16 -2 16 -4z m-103 -17 c-14 -8 -22 -8 -30 0 -8 8 -3 11 19
11 25 -1 27 -2 11 -11z m171 -27 c21 -3 13 -20 -15 -31 -25 -10 -23 -11 17 -6
39 4 43 3 27 -9 -34 -27 -132 -40 -213 -28 -42 5 -77 12 -80 14 -2 3 2 16 9
31 14 31 46 35 89 13 25 -13 30 -13 49 3 20 16 59 20 117 13z"/>
<path d="M3950 6740 c-8 -5 -31 -10 -51 -10 -19 0 -44 -7 -55 -15 -10 -8 -35
-15 -55 -15 -21 0 -44 -8 -57 -20 -12 -11 -27 -20 -35 -20 -7 0 -20 -11 -27
-25 -7 -14 -19 -25 -26 -25 -15 0 -25 -25 -18 -45 5 -11 -1 -15 -19 -15 -21 0
-45 -25 -34 -36 9 -10 137 -6 149 4 10 8 27 8 58 1 25 -6 69 -13 98 -17 29 -4
53 -11 54 -17 1 -5 -40 -25 -92 -43 -122 -42 -163 -62 -227 -109 -28 -21 -59
-43 -70 -50 -17 -11 -17 -12 0 -12 30 -1 14 -24 -24 -34 -38 -10 -59 -24 -59
-40 0 -6 24 -8 65 -5 73 6 75 -1 7 -37 -54 -28 -42 -30 43 -10 57 13 74 26
101 71 10 16 24 19 95 19 46 0 93 -4 104 -9 29 -13 123 -17 130 -6 4 6 0 10
-7 11 -7 0 -24 2 -38 3 -14 1 -41 3 -60 4 -65 4 -10 22 68 22 66 0 72 -2 72
-21 0 -12 8 -23 20 -26 15 -4 10 -10 -27 -28 -53 -27 -110 -41 -208 -51 -82
-8 -64 -17 56 -28 88 -8 159 4 234 39 61 29 62 30 91 100 18 44 24 50 46 47
14 -2 29 2 33 8 4 7 7 67 7 133 0 129 7 157 38 157 20 0 26 11 13 23 -3 4 -12
2 -19 -4 -16 -13 -54 5 -54 25 0 8 -7 16 -15 20 -8 3 -15 13 -15 22 0 10 -5
14 -15 10 -8 -3 -23 4 -33 15 -12 12 -25 17 -36 13 -9 -3 -23 -1 -31 6 -8 7
-15 9 -15 5 0 -4 -6 -3 -12 2 -18 15 -130 24 -148 13z"/>
<path d="M5620 6700 c0 -5 7 -7 15 -4 8 4 15 8 15 10 0 2 -7 4 -15 4 -8 0 -15
-4 -15 -10z"/>
<path d="M3557 6489 c-9 -6 -14 -15 -11 -21 4 -6 0 -14 -7 -19 -7 -4 -11 -10
-9 -13 3 -2 16 3 29 13 28 21 26 56 -2 40z"/>
<path d="M6626 5918 c-4 -24 -3 -45 4 -52 7 -7 10 6 10 42 0 29 -2 52 -4 52
-2 0 -6 -19 -10 -42z"/>
<path d="M4659 5659 c-8 -4 -48 -12 -89 -18 -139 -21 -166 -27 -190 -44 -32
-22 -109 -22 -155 0 -34 16 -38 16 -70 -1 -19 -10 -37 -26 -40 -34 -10 -27 46
-92 112 -131 34 -20 62 -42 63 -48 0 -7 9 -13 19 -13 11 0 23 -4 26 -10 3 -5
26 -10 49 -10 27 0 48 -6 56 -15 7 -8 23 -15 35 -15 34 0 55 -10 55 -26 0 -21
10 -17 32 11 14 18 29 25 53 25 26 0 39 7 55 30 18 26 28 30 66 30 37 0 46 4
53 23 6 15 28 32 58 45 71 30 153 122 153 170 0 23 -3 24 -32 16 -47 -11 -99
-10 -144 4 -48 14 -145 21 -165 11z"/>
<path d="M6550 5585 c-13 -14 -19 -25 -13 -25 12 0 48 38 41 45 -2 3 -15 -6
-28 -20z"/>
<path d="M6106 5415 c-3 -8 -1 -15 4 -15 6 0 10 7 10 15 0 8 -2 15 -4 15 -2 0
-6 -7 -10 -15z"/>
<path d="M4720 5319 c0 -5 5 -7 10 -4 6 3 10 8 10 11 0 2 -4 4 -10 4 -5 0 -10
-5 -10 -11z"/>
<path d="M5690 5300 c0 -5 5 -10 10 -10 6 0 10 5 10 10 0 6 -4 10 -10 10 -5 0
-10 -4 -10 -10z"/>
<path d="M5136 5133 c-53 -37 -97 -42 -197 -23 -29 6 -105 17 -168 25 -113 15
-116 15 -168 -7 -51 -21 -54 -21 -112 -5 -53 15 -64 15 -116 2 -31 -9 -65 -20
-75 -25 -10 -6 -28 -10 -39 -10 -10 0 -32 -7 -48 -15 -15 -8 -53 -25 -84 -38
-55 -24 -57 -24 -70 -6 -21 30 -43 22 -69 -25 -22 -41 -23 -47 -10 -71 14 -26
15 -26 100 -21 47 3 112 12 145 20 45 12 94 14 200 10 110 -5 156 -3 215 10
161 36 192 39 239 27 49 -12 115 -14 275 -9 101 3 122 12 97 42 -6 7 -9 30 -6
51 4 32 0 42 -28 70 l-32 32 -49 -34z"/>
<path d="M5677 5060 c-3 -13 0 -20 8 -20 21 0 27 16 11 29 -11 9 -15 7 -19 -9z"/>
<path d="M5823 5042 c-8 -5 -9 -13 -3 -22 11 -17 23 -8 18 14 -2 9 -8 12 -15
8z"/>
<path d="M5990 4980 c0 -5 5 -10 10 -10 6 0 10 5 10 10 0 6 -4 10 -10 10 -5 0
-10 -4 -10 -10z"/>
<path d="M5642 4955 c6 -14 18 -25 26 -25 12 0 10 6 -8 25 -13 14 -25 25 -27
25 -1 0 3 -11 9 -25z"/>
<path d="M5584 4919 c-4 -7 -7 -24 -8 -38 -1 -20 -6 -26 -26 -26 -21 0 -26 -6
-34 -42 -6 -26 -17 -45 -27 -48 -16 -5 -35 -52 -25 -62 12 -13 84 34 95 62 7
17 17 37 22 45 5 8 15 26 21 40 7 14 18 29 25 33 18 11 16 34 -3 41 -23 9 -32
7 -40 -5z"/>
<path d="M4690 4841 c0 -12 5 -21 10 -21 6 0 10 6 10 14 0 8 -4 18 -10 21 -5
3 -10 -3 -10 -14z"/>
<path d="M4562 4791 c-29 -13 -34 -13 -42 -1 -8 12 -13 11 -30 -7 -22 -24 -26
-43 -10 -43 6 0 11 1 13 2 1 1 12 -4 24 -10 12 -7 24 -8 27 -3 3 4 23 6 44 4
44 -5 92 25 92 59 0 19 -1 19 -25 4 -29 -19 -30 -19 -47 -3 -11 12 -19 11 -46
-2z"/>
<path d="M4540 4706 c0 -9 8 -14 20 -13 24 2 21 21 -3 25 -10 2 -17 -3 -17
-12z"/>
<path d="M5687 4613 c-10 -10 -8 -33 3 -33 5 0 14 9 20 20 8 15 8 20 -3 20 -8
0 -17 -3 -20 -7z"/>
<path d="M4826 4177 c3 -10 9 -15 12 -12 3 3 0 11 -7 18 -10 9 -11 8 -5 -6z"/>
<path d="M3872 4168 c64 -59 71 -64 59 -41 -11 22 -48 53 -64 53 -5 0 -2 -6 5
-12z"/>
</g>
</svg>
